<svg width="120" height="120" viewBox="0 0 120 120" fill="none" xmlns="http://www.w3.org/2000/svg">
<rect width="120" height="120" fill="black"/>
<path d="M46.377 91.8636C46.377 93.0844 45.4614 94 44.2406 94H38.1364C36.9156 94 36 93.0844 36 91.8636V50.6608C36 50.4573 36 50.1521 36.1017 49.8469L37.2208 47.2018C37.4243 46.8966 37.526 46.6931 37.7295 46.4896L56.2453 27.9738C56.6523 27.5668 57.1609 27.3634 57.7714 27.3634H63.0616C63.5703 27.3634 64.1807 27.5668 64.5876 27.9738L83.1035 46.4896C83.3069 46.6931 83.4087 46.8966 83.5104 47.2018L84.6295 49.8469C84.7312 50.1521 84.833 50.4573 84.833 50.6608V91.8636C84.833 93.0844 83.9173 94 82.6965 94H76.5924C75.3716 94 74.456 93.0844 74.456 91.8636V53.4076C74.456 52.7972 74.1507 52.2885 73.8455 51.8816L61.9425 40.0803C61.1286 39.1647 59.7043 39.1647 58.8904 40.0803L46.9874 51.8816C46.5805 52.2885 46.377 52.7972 46.377 53.4076V91.8636Z" fill="white"/>
<path d="M50 48.5L45 49.8904C45 50.3991 45.4614 64.4386 45.8683 64.8455C46.2753 65.2525 55.1262 74.1034 55.1262 74.1034C55.3297 74.3069 55.5332 74.4087 55.8384 74.5104L58.4835 75.6295C58.7887 75.7312 59.0939 75.8329 59.2974 75.8329L80.5002 75.8329C81.721 75.8329 82.6366 74.9173 82.6366 73.6965L82.6366 67.5924C82.6366 66.3716 81.721 65.4559 80.5002 65.4559L62.0442 65.4559C61.4338 65.4559 60.9251 65.1507 60.5182 64.8455L48.7169 52.9425C48.0523 52.3518 47.5 51.5 48.1703 50.6723C48.2837 50.3826 49.749 48.7231 50 48.5Z" fill="white" fill-opacity="0.5"/>
</svg>
